<?xml version="1.0" encoding="UTF-8"?>
<svg enable-background="new 0 0 494 423" version="1.1" viewBox="0 0 494 423" xml:space="preserve" xmlns="http://www.w3.org/2000/svg">
<style type="text/css">
	.st0{opacity:0.3;fill:#700D86;}
	.st1{opacity:0.3;}
	.st2{fill:none;stroke:#FFFFFF;stroke-width:0.5;stroke-miterlimit:10;}
	.st3{fill:none;stroke:#FFFFFF;stroke-miterlimit:10;}
	.st4{fill:none;stroke:#FFFFFF;stroke-width:0.25;stroke-miterlimit:10;}
	.st5{fill:#7DFFFB;}
	.st6{fill:none;stroke:#000000;stroke-width:0.25;stroke-miterlimit:10;}
	.st7{fill:none;stroke:#700D86;stroke-miterlimit:10;}
	.st8{fill:none;stroke:#000000;stroke-miterlimit:10;}
	.st9{fill:none;stroke:#00FFFF;stroke-width:0.5;stroke-miterlimit:10;}
	.st10{fill:none;}
	.st11{font-family:'GillSans';}
	.st12{font-size:13px;}
	.st13{letter-spacing:77;}
	.st14{letter-spacing:82;}
	.st15{letter-spacing:66;}
</style>
		<rect class="st1" x="413.1" y="117" width="17.4" height="81"/>
		<rect class="st1" x="359.1" y="225" width="17.8" height="54"/>
		<rect class="st1" x="377.1" y="306" width="17.8" height="54"/>
		<rect class="st1" x="395.1" y="225" width="17.8" height="54"/>
		<rect class="st1" x="377.1" y="225" width="17.8" height="54"/>
		<rect class="st1" x="359.1" y="306" width="17.8" height="54"/>
		<rect class="st1" x="431.5" y="306" width="17.4" height="27"/>
		<rect class="st1" x="449.1" y="306" width="17.8" height="27"/>
		<rect class="st1" x="413.1" y="306" width="17.4" height="27"/>
		<rect class="st1" x="395.1" y="306" width="17.8" height="54"/>
		<rect class="st1" x="305.1" y="225" width="17.4" height="135"/>
		<rect class="st1" x="341.1" y="225" width="17.8" height="135"/>
		<rect class="st1" x="323.5" y="36" width="17.4" height="162"/>
		<rect class="st1" x="323.5" y="225" width="17.4" height="135"/>
		<rect class="st1" x="287.1" y="225" width="17.8" height="135"/>
		<rect class="st1" x="413.1" y="225" width="17.4" height="27"/>
		<rect class="st1" x="449.1" y="117" width="17.8" height="81"/>
		<rect class="st1" x="431.5" y="117" width="17.4" height="81"/>
		<rect class="st1" x="395.1" y="117" width="17.8" height="81"/>
		<rect class="st1" x="413.1" y="63" width="17.4" height="27"/>
		<polygon class="st1" points="341.1 198 358.9 198 358.9 36 359.1 36 359.1 198 376.9 198 376.9 36 377.1 36 377.1 198 394.9 198 394.9 36 395.1 36 395.1 90 412.9 90 412.9 36 413 36 413 36 341.1 36"/>
		<rect class="st1" x="359.1" y="387" width="17.8" height="27"/>
		<rect class="st1" x="287.1" y="387" width="17.8" height="27"/>
		<rect class="st1" x="179.1" y="36" width="17.8" height="27"/>
		<rect class="st1" x="125" y="198" width="17.9" height="27"/>
		<polygon class="st1" points="287.1 36 287.1 198 304.9 198 304.9 36 305.1 36 305.1 198 322.5 198 322.5 36 233.1 36 233.1 414 232.9 414 232.9 36 215.5 36 215.5 414 214.5 414 214.5 36 197.1 36 197.1 414 197 414 197 414 250.9 414 250.9 36 251.1 36 251.1 414 268.9 414 268.9 36 269.1 36 269.1 414 286.9 414 286.9 36"/>
		<polygon class="st1" points="341.1 387 341.1 414 340.9 414 340.9 387 323.5 387 323.5 414 322.5 414 322.5 387 305.1 387 305.1 414 358.9 414 358.9 387"/>
		<polygon class="st1" points="430.5 414 430.5 387 413.1 387 413.1 414 431 414 431 414"/>
		<rect class="st1" x="377.1" y="387" width="17.8" height="27"/>
		<rect class="st1" x="467.1" y="306" width="17.9" height="27"/>
		<rect class="st1" x="395.1" y="387" width="17.8" height="27"/>
		<polygon class="st1" points="179.1 144 188 144 188 171 188 198 179.1 198 179.1 252 196.9 252 196.9 117 179.1 117"/>
		<rect class="st1" x="143.1" y="117" width="17.8" height="27"/>
		<rect class="st1" x="161.1" y="198" width="17.8" height="27"/>
		<rect class="st1" x="161.1" y="117" width="17.8" height="27"/>
		<rect class="st1" x="179.1" y="360" width="17.8" height="27"/>
		<rect class="st1" x="179.1" y="306" width="17.8" height="27"/>
		<rect class="st1" x="161.1" y="360" width="17.8" height="27"/>
		<rect class="st1" x="143.1" y="198" width="17.8" height="27"/>
		<polygon class="st1" points="476 144 476 117 467.1 117 467.1 171 476 171"/>
		<rect class="st1" x="143.1" y="360" width="17.8" height="27"/>
	<line class="st6" x1="89" x2="431" y1="90" y2="90"/>
	<line class="st6" x1="89" x2="476" y1="117" y2="117"/>
	<line class="st6" x1="89" x2="476" y1="144" y2="144"/>
	<line class="st6" x1="89" x2="476" y1="171" y2="171"/>
	<line class="st6" x1="89" x2="467" y1="198" y2="198"/>
	<line class="st6" x1="89" x2="431" y1="225" y2="225"/>
	<line class="st6" x1="89" x2="431" y1="252" y2="252"/>
	<line class="st6" x1="89" x2="413" y1="279" y2="279"/>
	<line class="st6" x1="89" x2="485" y1="306" y2="306"/>
	<line class="st6" x1="89" x2="485" y1="333" y2="333"/>
	<line class="st6" x1="89" x2="413" y1="360" y2="360"/>
	<line class="st6" x1="89" x2="431" y1="387" y2="387"/>
	<line class="st6" x1="89" x2="431" y1="414" y2="414"/>
	<line class="st6" x1="89" x2="431" y1="63" y2="63"/>
	<line class="st6" x1="89" x2="413" y1="36" y2="36"/>
	<line class="st8" x1="179" x2="179" y1="36" y2="63"/>
	<line class="st8" x1="197" x2="197" y1="63" y2="90"/>
	<line class="st8" x1="197" x2="197" y1="90" y2="117"/>
	<line class="st8" x1="143" x2="143" y1="117" y2="144"/>
	<line class="st8" x1="188" x2="188" y1="144" y2="171"/>
	<line class="st8" x1="188" x2="188" y1="171" y2="198"/>
	<line class="st8" x1="125" x2="125" y1="198" y2="225"/>
	<line class="st8" x1="179" x2="179" y1="225" y2="252"/>
	<line class="st8" x1="197" x2="197" y1="279" y2="306"/>
	<line class="st8" x1="179" x2="179" y1="306" y2="333"/>
	<line class="st8" x1="197" x2="197" y1="333" y2="360"/>
	<line class="st8" x1="143" x2="143" y1="360" y2="387"/>
	<line class="st8" x1="197" x2="197" y1="387" y2="414"/>
	<line class="st8" x1="197" x2="197" y1="252" y2="279"/>
	<line class="st8" x1="413" x2="413" y1="36" y2="63"/>
	<line class="st8" x1="431" x2="431" y1="63" y2="90"/>
	<line class="st8" x1="395" x2="395" y1="90" y2="117"/>
	<line class="st8" x1="476" x2="476" y1="117" y2="144"/>
	<line class="st8" x1="476" x2="476" y1="144" y2="171"/>
	<line class="st8" x1="467" x2="467" y1="171" y2="198"/>
	<line class="st8" x1="287" x2="287" y1="198" y2="225"/>
	<line class="st8" x1="431" x2="431" y1="225" y2="252"/>
	<line class="st8" x1="431" x2="431" y1="387" y2="414"/>
	<line class="st8" x1="413" x2="413" y1="252" y2="279"/>
	<line class="st8" x1="359" x2="359" y1="279" y2="306"/>
	<line class="st8" x1="485" x2="485" y1="306" y2="333"/>
	<line class="st8" x1="413" x2="413" y1="333" y2="360"/>
	<line class="st8" x1="287" x2="287" y1="360" y2="387"/>
	<rect class="st10" x="-10" y="45" width="116.2" height="383.6"/>
	<text transform="translate(76.293 53.866)"><tspan class="st11 st12" x="0" y="0">Terra </tspan><tspan class="st11 st12" x="-19.9" y="27">Pizza Hut</tspan><tspan class="st11 st12" x="-25.7" y="54">Chez Olga</tspan><tspan class="st11 st12" x="-42.3" y="81">Eastown Cafe</tspan><tspan class="st11 st12" x="-24.2" y="108">Yesterdog</tspan><tspan class="st11 st12" x="-27.4" y="135">Pita House</tspan><tspan class="st11 st12" x="-27.9" y="162">Wolfgang’s</tspan><tspan class="st11 st12" x="-36.8" y="189">Jimmy John’s</tspan><tspan class="st11 st12" x="-45.2" y="216">Little Caesar’s</tspan><tspan class="st11 st12" x="-56.6" y="243">Uncle Cheetah’s</tspan><tspan class="st11 st12" x="-11.1" y="270">Fish Fry</tspan><tspan class="st11 st12" x="-28.1" y="297">Brick Road</tspan><tspan class="st11 st12" x="-74.8" y="324">(RIP) Marie Catrib’s</tspan><tspan class="st11 st12" x="-2.9" y="351">Vivant</tspan></text>
	<rect class="st10" x="98" y="18" width="441" height="9"/>
	<text transform="translate(97.977 26.866)"><tspan class="st11 st12" x="0" y="0">6am</tspan><tspan class="st11 st12 st13" x="22.1" y="0">	</tspan><tspan class="st11 st12" x="103.3" y="0">noon</tspan><tspan class="st11 st12 st14" x="130.6" y="0">	</tspan><tspan class="st11 st12" x="217.1" y="0">6pm</tspan><tspan class="st11 st12 st15" x="240.1" y="0">	</tspan><tspan class="st11 st12" x="310.7" y="0">midnight</tspan></text>
</svg>
