<?xml version="1.0" encoding="UTF-8"?>
<svg enable-background="new 0 0 495 459" version="1.1" viewBox="0 0 495 459" xml:space="preserve" xmlns="http://www.w3.org/2000/svg">
<style type="text/css">
	.st0{opacity:0.3;fill:#700D86;}
	.st1{opacity:0.3;}
	.st2{fill:none;stroke:#FFFFFF;stroke-width:0.5;stroke-miterlimit:10;}
	.st3{fill:none;stroke:#FFFFFF;stroke-miterlimit:10;}
	.st4{fill:none;stroke:#FFFFFF;stroke-width:0.25;stroke-miterlimit:10;}
	.st5{fill:#7DFFFB;}
	.st6{fill:none;stroke:#000000;stroke-width:0.25;stroke-linecap:round;stroke-linejoin:round;stroke-miterlimit:10;}
	.st7{fill:none;stroke:#700D86;stroke-miterlimit:10;}
	.st8{fill:none;stroke:#000000;stroke-miterlimit:10;}
	.st9{fill:none;stroke:#000000;stroke-linecap:round;stroke-linejoin:round;stroke-miterlimit:10;}
	.st10{fill:none;stroke:#00FFFF;stroke-width:0.5;stroke-miterlimit:10;}
	.st11{fill:none;}
	.st12{font-family:'GillSans';}
	.st13{font-size:13px;}
	.st14{letter-spacing:77;}
	.st15{letter-spacing:82;}
	.st16{letter-spacing:66;}
	.st17{fill:none;stroke:#000000;stroke-width:0.25;stroke-miterlimit:10;}
	.st18{font-family:'MyriadPro-Regular';}
	.st19{font-size:15px;}
</style>
		<rect class="st1" x="414.1" y="153" width="17.4" height="81"/>
		<rect class="st1" x="360.1" y="261" width="17.8" height="54"/>
		<rect class="st1" x="378.1" y="342" width="17.8" height="54"/>
		<rect class="st1" x="396.1" y="261" width="17.8" height="54"/>
		<rect class="st1" x="378.1" y="261" width="17.8" height="54"/>
		<rect class="st1" x="360.1" y="342" width="17.8" height="54"/>
		<rect class="st1" x="432.5" y="342" width="17.4" height="27"/>
		<rect class="st1" x="450.1" y="342" width="17.8" height="27"/>
		<rect class="st1" x="414.1" y="342" width="17.4" height="27"/>
		<rect class="st1" x="396.1" y="342" width="17.8" height="54"/>
		<rect class="st1" x="306.1" y="261" width="17.4" height="135"/>
		<rect class="st1" x="342.1" y="261" width="17.8" height="135"/>
		<rect class="st1" x="324.5" y="72" width="17.4" height="162"/>
		<rect class="st1" x="324.5" y="261" width="17.4" height="135"/>
		<rect class="st1" x="288.1" y="261" width="17.8" height="135"/>
		<rect class="st1" x="414.1" y="261" width="17.4" height="27"/>
		<rect class="st1" x="450.1" y="153" width="17.8" height="81"/>
		<rect class="st1" x="432.5" y="153" width="17.4" height="81"/>
		<rect class="st1" x="396.1" y="153" width="17.8" height="81"/>
		<rect class="st1" x="414.1" y="99" width="17.4" height="27"/>
		<polygon class="st1" points="342.1 234 359.9 234 359.9 72 360.1 72 360.1 234 377.9 234 377.9 72 378.1 72 378.1 234 395.9 234 395.9 72 396.1 72 396.1 126 413.9 126 413.9 72 414 72 414 72 342.1 72"/>
		<rect class="st1" x="360.1" y="423" width="17.8" height="27"/>
		<rect class="st1" x="288.1" y="423" width="17.8" height="27"/>
		<rect class="st1" x="180.1" y="72" width="17.8" height="27"/>
		<rect class="st1" x="126" y="234" width="17.9" height="27"/>
		<polygon class="st1" points="288.1 72 288.1 234 305.9 234 305.9 72 306.1 72 306.1 234 323.5 234 323.5 72 234.1 72 234.1 450 233.9 450 233.9 72 216.5 72 216.5 450 215.5 450 215.5 72 198.1 72 198.1 450 198 450 198 450 251.9 450 251.9 72 252.1 72 252.1 450 269.9 450 269.9 72 270.1 72 270.1 450 287.9 450 287.9 72"/>
		<polygon class="st1" points="342.1 423 342.1 450 341.9 450 341.9 423 324.5 423 324.5 450 323.5 450 323.5 423 306.1 423 306.1 450 359.9 450 359.9 423"/>
		<polygon class="st1" points="431.5 450 431.5 423 414.1 423 414.1 450 432 450 432 450"/>
		<rect class="st1" x="378.1" y="423" width="17.8" height="27"/>
		<rect class="st1" x="468.1" y="342" width="17.9" height="27"/>
		<rect class="st1" x="396.1" y="423" width="17.8" height="27"/>
		<polygon class="st1" points="180.1 180 189 180 189 207 189 234 180.1 234 180.1 288 197.9 288 197.9 153 180.1 153"/>
		<rect class="st1" x="144.1" y="153" width="17.8" height="27"/>
		<rect class="st1" x="162.1" y="234" width="17.8" height="27"/>
		<rect class="st1" x="162.1" y="153" width="17.8" height="27"/>
		<rect class="st1" x="180.1" y="396" width="17.8" height="27"/>
		<rect class="st1" x="180.1" y="342" width="17.8" height="27"/>
		<rect class="st1" x="162.1" y="396" width="17.8" height="27"/>
		<rect class="st1" x="144.1" y="234" width="17.8" height="27"/>
		<polygon class="st1" points="477 180 477 153 468.1 153 468.1 207 477 207"/>
		<rect class="st1" x="144.1" y="396" width="17.8" height="27"/>
	<line class="st6" x1="90" x2="432" y1="126" y2="126"/>
	<line class="st6" x1="90" x2="477" y1="153" y2="153"/>
	<line class="st6" x1="90" x2="477" y1="180" y2="180"/>
	<line class="st6" x1="90" x2="477" y1="207" y2="207"/>
	<line class="st6" x1="90" x2="468" y1="234" y2="234"/>
	<line class="st6" x1="90" x2="432" y1="261" y2="261"/>
	<line class="st6" x1="90" x2="432" y1="288" y2="288"/>
	<line class="st6" x1="90" x2="414" y1="315" y2="315"/>
	<line class="st6" x1="90" x2="486" y1="342" y2="342"/>
	<line class="st6" x1="90" x2="486" y1="369" y2="369"/>
	<line class="st6" x1="90" x2="414" y1="396" y2="396"/>
	<line class="st6" x1="90" x2="432" y1="423" y2="423"/>
	<line class="st6" x1="90" x2="432" y1="450" y2="450"/>
	<line class="st6" x1="90" x2="432" y1="99" y2="99"/>
	<line class="st6" x1="90" x2="414" y1="72" y2="72"/>
	<line class="st9" x1="180" x2="180" y1="72" y2="99"/>
	<line class="st9" x1="198" x2="198" y1="99" y2="126"/>
	<line class="st9" x1="198" x2="198" y1="126" y2="153"/>
	<line class="st9" x1="144" x2="144" y1="153" y2="180"/>
	<line class="st9" x1="189" x2="189" y1="180" y2="207"/>
	<line class="st9" x1="189" x2="189" y1="207" y2="234"/>
	<line class="st9" x1="126" x2="126" y1="234" y2="261"/>
	<line class="st9" x1="180" x2="180" y1="261" y2="288"/>
	<line class="st9" x1="198" x2="198" y1="315" y2="342"/>
	<line class="st9" x1="180" x2="180" y1="342" y2="369"/>
	<line class="st9" x1="198" x2="198" y1="369" y2="396"/>
	<line class="st9" x1="144" x2="144" y1="396" y2="423"/>
	<line class="st9" x1="198" x2="198" y1="423" y2="450"/>
	<line class="st9" x1="198" x2="198" y1="288" y2="315"/>
	<line class="st9" x1="414" x2="414" y1="72" y2="99"/>
	<line class="st9" x1="432" x2="432" y1="99" y2="126"/>
	<line class="st9" x1="396" x2="396" y1="126" y2="153"/>
	<line class="st9" x1="477" x2="477" y1="153" y2="180"/>
	<line class="st9" x1="477" x2="477" y1="180" y2="207"/>
	<line class="st9" x1="468" x2="468" y1="207" y2="234"/>
	<line class="st9" x1="288" x2="288" y1="234" y2="261"/>
	<line class="st9" x1="432" x2="432" y1="261" y2="288"/>
	<line class="st9" x1="432" x2="432" y1="423" y2="450"/>
	<line class="st9" x1="414" x2="414" y1="288" y2="315"/>
	<line class="st9" x1="360" x2="360" y1="315" y2="342"/>
	<line class="st9" x1="486" x2="486" y1="342" y2="369"/>
	<line class="st9" x1="414" x2="414" y1="369" y2="396"/>
	<line class="st9" x1="288" x2="288" y1="396" y2="423"/>
	<rect class="st11" x="-9" y="81" width="116.2" height="383.6"/>
	<text transform="translate(77.316 89.866)"><tspan class="st12 st13" x="0" y="0">Terra </tspan><tspan class="st12 st13" x="-19.9" y="27">Pizza Hut</tspan><tspan class="st12 st13" x="-25.7" y="54">Chez Olga</tspan><tspan class="st12 st13" x="-42.3" y="81">Eastown Cafe</tspan><tspan class="st12 st13" x="-24.2" y="108">Yesterdog</tspan><tspan class="st12 st13" x="-27.4" y="135">Pita House</tspan><tspan class="st12 st13" x="-27.9" y="162">Wolfgang’s</tspan><tspan class="st12 st13" x="-36.8" y="189">Jimmy John’s</tspan><tspan class="st12 st13" x="-45.2" y="216">Little Caesar’s</tspan><tspan class="st12 st13" x="-56.6" y="243">Uncle Cheetah’s</tspan><tspan class="st12 st13" x="-11.1" y="270">Fish Fry</tspan><tspan class="st12 st13" x="-28.1" y="297">Brick Road</tspan><tspan class="st12 st13" x="-74.8" y="324">(RIP) Marie Catrib’s</tspan><tspan class="st12 st13" x="-2.9" y="351">Vivant</tspan></text>
	<rect class="st11" x="99" y="54" width="441" height="9"/>
	<text transform="translate(99 62.866)"><tspan class="st12 st13" x="0" y="0">6am</tspan><tspan class="st12 st13 st14" x="22.1" y="0">	</tspan><tspan class="st12 st13" x="103.3" y="0">noon</tspan><tspan class="st12 st13 st15" x="130.6" y="0">	</tspan><tspan class="st12 st13" x="217.1" y="0">6pm</tspan><tspan class="st12 st13 st16" x="240.1" y="0">	</tspan><tspan class="st12 st13" x="310.7" y="0">midnight</tspan></text>
	<rect class="st11" x="1" y="9" width="494" height="18"/>
	<text class="st18 st19" transform="translate(135.09 19.65)">Walkable Food in Eastown, Saturday</text>
</svg>
